<mxfile host="app.diagrams.net" modified="2020-12-10T03:28:04.909Z" agent="5.0 (Windows NT 10.0; Win64; x64) AppleWebKit/537.36 (KHTML, like Gecko) Chrome/87.0.4280.67 Safari/537.36 Edg/87.0.664.55" etag="E3fm-HbiWci-eGevWmej" version="14.0.0" type="github">
  <diagram id="H9GkzE4PduyMibWZ-bSj" name="Page-1">
    <mxGraphModel dx="734" dy="515" grid="1" gridSize="10" guides="1" tooltips="1" connect="1" arrows="1" fold="1" page="1" pageScale="1" pageWidth="827" pageHeight="1169" math="0" shadow="0">
      <root>
        <mxCell id="0" />
        <mxCell id="1" parent="0" />
        <mxCell id="hvzjkaoyhkDjsML1f3_2-4" style="edgeStyle=orthogonalEdgeStyle;rounded=0;orthogonalLoop=1;jettySize=auto;html=1;exitX=0.5;exitY=1;exitDx=0;exitDy=0;entryX=0.5;entryY=0;entryDx=0;entryDy=0;" edge="1" parent="1" source="hvzjkaoyhkDjsML1f3_2-2">
          <mxGeometry relative="1" as="geometry">
            <mxPoint x="315" y="300" as="targetPoint" />
          </mxGeometry>
        </mxCell>
        <mxCell id="hvzjkaoyhkDjsML1f3_2-2" value="开始" style="ellipse;whiteSpace=wrap;html=1;" vertex="1" parent="1">
          <mxGeometry x="260" y="220" width="110" height="50" as="geometry" />
        </mxCell>
        <mxCell id="hvzjkaoyhkDjsML1f3_2-5" style="edgeStyle=orthogonalEdgeStyle;rounded=0;orthogonalLoop=1;jettySize=auto;html=1;exitX=0.5;exitY=1;exitDx=0;exitDy=0;" edge="1" parent="1">
          <mxGeometry relative="1" as="geometry">
            <mxPoint x="315" y="410" as="targetPoint" />
            <mxPoint x="315" y="360" as="sourcePoint" />
          </mxGeometry>
        </mxCell>
        <mxCell id="hvzjkaoyhkDjsML1f3_2-11" value="" style="edgeStyle=orthogonalEdgeStyle;rounded=0;orthogonalLoop=1;jettySize=auto;html=1;" edge="1" parent="1" source="hvzjkaoyhkDjsML1f3_2-6" target="hvzjkaoyhkDjsML1f3_2-8">
          <mxGeometry relative="1" as="geometry" />
        </mxCell>
        <mxCell id="hvzjkaoyhkDjsML1f3_2-6" value="&lt;br&gt;从token中获取当前用户登录id" style="rounded=0;whiteSpace=wrap;html=1;" vertex="1" parent="1">
          <mxGeometry x="255" y="410" width="125" height="60" as="geometry" />
        </mxCell>
        <mxCell id="hvzjkaoyhkDjsML1f3_2-7" value="入参为子账号id(child_id)" style="rounded=0;whiteSpace=wrap;html=1;" vertex="1" parent="1">
          <mxGeometry x="255" y="300" width="120" height="60" as="geometry" />
        </mxCell>
        <mxCell id="hvzjkaoyhkDjsML1f3_2-14" value="" style="edgeStyle=orthogonalEdgeStyle;rounded=0;orthogonalLoop=1;jettySize=auto;html=1;" edge="1" parent="1" source="hvzjkaoyhkDjsML1f3_2-8" target="hvzjkaoyhkDjsML1f3_2-13">
          <mxGeometry relative="1" as="geometry" />
        </mxCell>
        <mxCell id="hvzjkaoyhkDjsML1f3_2-8" value="数据权限获取用户可见范围" style="rounded=0;whiteSpace=wrap;html=1;" vertex="1" parent="1">
          <mxGeometry x="257.5" y="510" width="120" height="40" as="geometry" />
        </mxCell>
        <mxCell id="hvzjkaoyhkDjsML1f3_2-16" value="" style="edgeStyle=orthogonalEdgeStyle;rounded=0;orthogonalLoop=1;jettySize=auto;html=1;" edge="1" parent="1" source="hvzjkaoyhkDjsML1f3_2-17" target="hvzjkaoyhkDjsML1f3_2-15">
          <mxGeometry relative="1" as="geometry">
            <Array as="points">
              <mxPoint x="430" y="660" />
              <mxPoint x="430" y="660" />
            </Array>
          </mxGeometry>
        </mxCell>
        <mxCell id="hvzjkaoyhkDjsML1f3_2-13" value="判断是否有访问权（childId是否在数据权限范围内）" style="rhombus;whiteSpace=wrap;html=1;" vertex="1" parent="1">
          <mxGeometry x="254.13" y="610" width="126.75" height="100" as="geometry" />
        </mxCell>
        <mxCell id="hvzjkaoyhkDjsML1f3_2-15" value="数据权限不足" style="rounded=0;whiteSpace=wrap;html=1;fillColor=#f8cecc;strokeColor=#b85450;" vertex="1" parent="1">
          <mxGeometry x="470" y="630" width="120" height="60" as="geometry" />
        </mxCell>
        <mxCell id="hvzjkaoyhkDjsML1f3_2-17" value="否" style="text;html=1;align=center;verticalAlign=middle;resizable=0;points=[];autosize=1;" vertex="1" parent="1">
          <mxGeometry x="410" y="650" width="30" height="20" as="geometry" />
        </mxCell>
        <mxCell id="hvzjkaoyhkDjsML1f3_2-18" value="" style="edgeStyle=orthogonalEdgeStyle;rounded=0;orthogonalLoop=1;jettySize=auto;html=1;" edge="1" parent="1" source="hvzjkaoyhkDjsML1f3_2-13" target="hvzjkaoyhkDjsML1f3_2-17">
          <mxGeometry relative="1" as="geometry">
            <mxPoint x="380.8800000000001" y="660" as="sourcePoint" />
            <mxPoint x="470" y="660" as="targetPoint" />
            <Array as="points" />
          </mxGeometry>
        </mxCell>
      </root>
    </mxGraphModel>
  </diagram>
</mxfile>
